<svg width="300" height="300" viewBox="0 0 300 300" fill="none" xmlns="http://www.w3.org/2000/svg">
<g clip-path="url(#clip0_690_2)">
<circle cx="150.5" cy="149.5" r="150.5" fill="#616B7C"/>
<path d="M119.05 148.45C124.65 149.45 129.4 152.4 133.3 157.3C137.2 162.2 139.15 167.75 139.15 173.95C139.15 179.25 137.75 184.05 134.95 188.35C132.25 192.55 128.3 195.9 123.1 198.4C117.9 200.8 111.85 202 104.95 202H63.25V97.75H103C110.1 97.75 116.2 98.95 121.3 101.35C126.4 103.75 130.25 107 132.85 111.1C135.45 115.1 136.75 119.6 136.75 124.6C136.75 130.6 135.15 135.6 131.95 139.6C128.75 143.6 124.45 146.55 119.05 148.45ZM80.35 141.55H101.5C107.1 141.55 111.45 140.3 114.55 137.8C117.75 135.2 119.35 131.5 119.35 126.7C119.35 122 117.75 118.35 114.55 115.75C111.45 113.05 107.1 111.7 101.5 111.7H80.35V141.55ZM103.45 188.05C109.25 188.05 113.8 186.65 117.1 183.85C120.4 181.05 122.05 177.15 122.05 172.15C122.05 167.05 120.3 163 116.8 160C113.3 157 108.65 155.5 102.85 155.5H80.35V188.05H103.45ZM222.682 202L182.332 155.35V202H165.232V97.75H182.332V145.3L222.832 97.75H244.282L198.982 149.95L245.032 202H222.682Z" fill="#F7F7F7"/>
</g>
<defs>
<clipPath id="clip0_690_2">
<rect width="300" height="300" fill="white"/>
</clipPath>
</defs>
</svg>
